<mxfile host="Electron" agent="Mozilla/5.0 (Windows NT 10.0; Win64; x64) AppleWebKit/537.36 (KHTML, like Gecko) draw.io/28.0.6 Chrome/138.0.7204.100 Electron/37.2.3 Safari/537.36" version="28.0.6">
  <diagram name="Page-1" id="Kj-6u1kmiEmNgJKNgiPr">
    <mxGraphModel dx="984" dy="572" grid="1" gridSize="10" guides="1" tooltips="1" connect="1" arrows="1" fold="1" page="1" pageScale="1" pageWidth="850" pageHeight="1100" math="0" shadow="0">
      <root>
        <mxCell id="0" />
        <mxCell id="1" parent="0" />
        <mxCell id="vntsHKRQvQi0EZRlt0sJ-16" style="edgeStyle=orthogonalEdgeStyle;rounded=0;orthogonalLoop=1;jettySize=auto;html=1;exitX=1;exitY=0.5;exitDx=0;exitDy=0;entryX=0;entryY=0.5;entryDx=0;entryDy=0;" parent="1" source="vntsHKRQvQi0EZRlt0sJ-2" target="vntsHKRQvQi0EZRlt0sJ-3" edge="1">
          <mxGeometry relative="1" as="geometry" />
        </mxCell>
        <mxCell id="vntsHKRQvQi0EZRlt0sJ-2" value="Prescanner &amp;amp;&lt;br&gt;preprocessor" style="rounded=0;whiteSpace=wrap;html=1;fillColor=#E6E6E6;" parent="1" vertex="1">
          <mxGeometry x="280" y="80" width="120" height="50" as="geometry" />
        </mxCell>
        <mxCell id="vntsHKRQvQi0EZRlt0sJ-23" style="edgeStyle=orthogonalEdgeStyle;rounded=0;orthogonalLoop=1;jettySize=auto;html=1;exitX=1;exitY=0.5;exitDx=0;exitDy=0;entryX=1;entryY=0.5;entryDx=0;entryDy=0;" parent="1" source="vntsHKRQvQi0EZRlt0sJ-3" target="vntsHKRQvQi0EZRlt0sJ-5" edge="1">
          <mxGeometry relative="1" as="geometry" />
        </mxCell>
        <mxCell id="vntsHKRQvQi0EZRlt0sJ-3" value="Parser" style="rounded=0;whiteSpace=wrap;html=1;fillColor=#E6E6E6;" parent="1" vertex="1">
          <mxGeometry x="440" y="80" width="120" height="50" as="geometry" />
        </mxCell>
        <mxCell id="qDUYlyDLEI0-i8Mk5LSP-2" style="edgeStyle=orthogonalEdgeStyle;rounded=0;orthogonalLoop=1;jettySize=auto;html=1;exitX=0;exitY=0.5;exitDx=0;exitDy=0;entryX=1;entryY=0.5;entryDx=0;entryDy=0;" parent="1" source="vntsHKRQvQi0EZRlt0sJ-5" target="vntsHKRQvQi0EZRlt0sJ-6" edge="1">
          <mxGeometry relative="1" as="geometry" />
        </mxCell>
        <mxCell id="vntsHKRQvQi0EZRlt0sJ-5" value="Semantic&lt;div&gt;analysis&lt;/div&gt;" style="rounded=0;whiteSpace=wrap;html=1;fillColor=#E6E6E6;" parent="1" vertex="1">
          <mxGeometry x="440" y="170" width="120" height="50" as="geometry" />
        </mxCell>
        <mxCell id="qDUYlyDLEI0-i8Mk5LSP-3" style="edgeStyle=orthogonalEdgeStyle;rounded=0;orthogonalLoop=1;jettySize=auto;html=1;exitX=0;exitY=0.5;exitDx=0;exitDy=0;" parent="1" source="vntsHKRQvQi0EZRlt0sJ-6" target="vntsHKRQvQi0EZRlt0sJ-9" edge="1">
          <mxGeometry relative="1" as="geometry" />
        </mxCell>
        <mxCell id="vntsHKRQvQi0EZRlt0sJ-6" value="Lowering 1&lt;div&gt;(PFT to HLFIR)&lt;/div&gt;" style="rounded=0;whiteSpace=wrap;html=1;fillColor=#CCCCCC;" parent="1" vertex="1">
          <mxGeometry x="280" y="170" width="120" height="50" as="geometry" />
        </mxCell>
        <mxCell id="vntsHKRQvQi0EZRlt0sJ-24" style="edgeStyle=orthogonalEdgeStyle;rounded=0;orthogonalLoop=1;jettySize=auto;html=1;exitX=0;exitY=0.5;exitDx=0;exitDy=0;entryX=0;entryY=0.5;entryDx=0;entryDy=0;" parent="1" source="vntsHKRQvQi0EZRlt0sJ-9" target="vntsHKRQvQi0EZRlt0sJ-10" edge="1">
          <mxGeometry relative="1" as="geometry" />
        </mxCell>
        <mxCell id="vntsHKRQvQi0EZRlt0sJ-9" value="Lowering 2&lt;div&gt;(HlFIR to FIR)&lt;/div&gt;" style="rounded=0;whiteSpace=wrap;html=1;fillColor=#CCCCCC;" parent="1" vertex="1">
          <mxGeometry x="120" y="170" width="120" height="50" as="geometry" />
        </mxCell>
        <mxCell id="vntsHKRQvQi0EZRlt0sJ-21" style="edgeStyle=orthogonalEdgeStyle;rounded=0;orthogonalLoop=1;jettySize=auto;html=1;exitX=1;exitY=0.5;exitDx=0;exitDy=0;entryX=0;entryY=0.5;entryDx=0;entryDy=0;" parent="1" source="vntsHKRQvQi0EZRlt0sJ-10" target="vntsHKRQvQi0EZRlt0sJ-11" edge="1">
          <mxGeometry relative="1" as="geometry" />
        </mxCell>
        <mxCell id="vntsHKRQvQi0EZRlt0sJ-10" value="MLIR Dialect Conversion" style="rounded=0;whiteSpace=wrap;html=1;fillColor=#CCCCCC;" parent="1" vertex="1">
          <mxGeometry x="120" y="260" width="120" height="50" as="geometry" />
        </mxCell>
        <mxCell id="vntsHKRQvQi0EZRlt0sJ-22" style="edgeStyle=orthogonalEdgeStyle;rounded=0;orthogonalLoop=1;jettySize=auto;html=1;exitX=1;exitY=0.5;exitDx=0;exitDy=0;entryX=0;entryY=0.5;entryDx=0;entryDy=0;" parent="1" source="vntsHKRQvQi0EZRlt0sJ-11" target="vntsHKRQvQi0EZRlt0sJ-14" edge="1">
          <mxGeometry relative="1" as="geometry" />
        </mxCell>
        <mxCell id="vntsHKRQvQi0EZRlt0sJ-11" value="LLVM MLIR&lt;div&gt;Translation&lt;/div&gt;" style="rounded=0;whiteSpace=wrap;html=1;fillColor=#CCCCCC;" parent="1" vertex="1">
          <mxGeometry x="280" y="260" width="120" height="50" as="geometry" />
        </mxCell>
        <mxCell id="vntsHKRQvQi0EZRlt0sJ-15" style="edgeStyle=orthogonalEdgeStyle;rounded=0;orthogonalLoop=1;jettySize=auto;html=1;exitX=1;exitY=0.5;exitDx=0;exitDy=0;entryX=0;entryY=0.5;entryDx=0;entryDy=0;" parent="1" source="vntsHKRQvQi0EZRlt0sJ-13" target="vntsHKRQvQi0EZRlt0sJ-2" edge="1">
          <mxGeometry relative="1" as="geometry" />
        </mxCell>
        <mxCell id="vntsHKRQvQi0EZRlt0sJ-13" value="Fortran code&lt;br&gt;(w/OpenMP directives)" style="rounded=1;whiteSpace=wrap;html=1;gradientColor=none;strokeColor=default;fillColor=#B3B3B3;" parent="1" vertex="1">
          <mxGeometry x="100" y="80" width="140" height="50" as="geometry" />
        </mxCell>
        <mxCell id="vntsHKRQvQi0EZRlt0sJ-14" value="LLVM IR" style="rounded=1;whiteSpace=wrap;html=1;fillColor=#B3B3B3;" parent="1" vertex="1">
          <mxGeometry x="440" y="260" width="140" height="50" as="geometry" />
        </mxCell>
      </root>
    </mxGraphModel>
  </diagram>
</mxfile>
